# Blender v2.90.1 OBJ File: '00763df09b554576b421a61df599980f.blend'
# www.blender.org
o Paper_Plane
v -0.011029 -0.592948 0.288629
v -0.011029 1.035532 -0.077389
v -0.069578 -0.661533 -0.016517
v -0.478454 -0.668713 -0.048461
v 0.049407 -0.661044 -0.014341
v 0.457590 -0.668373 -0.046952
v -0.448447 -0.559263 -0.050319
v 0.427482 -0.558945 -0.048906
v -0.031780 -0.268993 -0.051169
v 0.008581 -0.268675 -0.049756
v -0.013657 -0.220793 0.140731
v -0.008020 -0.220475 0.142144
v -0.020835 0.230460 0.051526
v -0.001330 0.230391 0.051601
v -0.027889 0.302933 -0.059989
v 0.005648 0.302815 -0.059861
v 0.379564 -0.500702 -0.049180
v -0.400666 -0.500963 -0.050451
vn -0.9829 0.0404 0.1795
vn 0.9816 0.0419 0.1864
vn 0.0803 0.0399 0.9960
vn -0.0785 0.0384 0.9962
vn 0.9958 -0.0176 -0.0896
vn -0.9965 -0.0167 -0.0820
vn -0.0128 -0.0214 -0.9997
vn 0.0121 -0.0203 -0.9997
vn -0.0804 -0.0507 -0.9955
vn 0.0786 -0.0483 -0.9957
vn -0.9860 -0.0442 -0.1608
vn 0.9869 -0.0420 -0.1558
vn 0.0027 -0.2767 -0.9610
vn 0.0269 -0.0243 -0.9993
vn -0.0240 -0.0245 -0.9994
vn -0.0078 0.0155 0.9999
vn -0.9957 0.0082 0.0920
vn 0.0095 0.0177 0.9998
vn 0.9964 0.0066 0.0845
vt 0.000000 0.000000
f 1/1/1 2/1/1 3/1/1
f 1/1/2 5/1/2 2/1/2
f 5/1/3 6/1/3 8/1/3 2/1/3
f 3/1/4 2/1/4 7/1/4 4/1/4
f 9/1/5 2/1/5 11/1/5
f 10/1/6 12/1/6 2/1/6
f 2/1/7 8/1/7 10/1/7
f 2/1/8 9/1/8 7/1/8
f 5/1/9 16/1/9 17/1/9 6/1/9
f 4/1/10 18/1/10 15/1/10 3/1/10
f 5/1/11 1/1/11 14/1/11 16/1/11
f 1/1/12 3/1/12 15/1/12 13/1/12
f 1/1/13 13/1/13 14/1/13
f 4/1/14 7/1/14 18/1/14
f 6/1/15 17/1/15 8/1/15
f 15/1/16 18/1/16 9/1/16
f 9/1/17 11/1/17 15/1/17
f 17/1/18 16/1/18 10/1/18
f 12/1/19 10/1/19 16/1/19
